{
  "accessors": [
    {
      "bufferView": 2,
      "componentType": 5126,
      "count": 617,
      "max": [
        0.9980267882347107,
        1.1846303939819336,
        0.9921149015426636
      ],
      "min": [
        -0.998026967048645,
        -1.0,
        -1.0
      ],
      "type": "VEC3"
    },
    {
      "bufferView": 2,
      "byteOffset": 7404,
      "componentType": 5126,
      "count": 617,
      "max": [
        0.9980267882347107,
        1.0,
        0.992114782333374
      ],
      "min": [
        -0.9980267286300659,
        -1.0,
        -1.0
      ],
      "type": "VEC3"
    },
    {
      "bufferView": 3,
      "componentType": 5126,
      "count": 617,
      "max": [
        0.9917249083518982,
        0.9963796734809875,
        0.9967441558837891,
        1.0
      ],
      "min": [
        -0.9850953221321106,
        -0.8800890445709229,
        -0.9996652007102966,
        1.0
      ],
      "type": "VEC4"
    },
    {
      "bufferView": 1,
      "componentType": 5126,
      "count": 617,
      "max": [
        0.9989397525787354,
        0.9989352226257324
      ],
      "min": [
        0.007151659578084946,
        0.0015728133730590343
      ],
      "type": "VEC2"
    },
    {
      "bufferView": 1,
      "byteOffset": 4936,
      "componentType": 5126,
      "count": 617,
      "max": [
        0.9989397525787354,
        0.9989352226257324
      ],
      "min": [
        0.007151659578084946,
        0.0015728133730590343
      ],
      "type": "VEC2"
    },
    {
      "bufferView": 1,
      "byteOffset": 9872,
      "componentType": 5126,
      "count": 617,
      "max": [
        0.9989397525787354,
        0.9989352226257324
      ],
      "min": [
        0.007151659578084946,
        0.0015728133730590343
      ],
      "type": "VEC2"
    },
    {
      "bufferView": 1,
      "byteOffset": 14808,
      "componentType": 5126,
      "count": 617,
      "max": [
        0.9989397525787354,
        0.9989352226257324
      ],
      "min": [
        0.007151659578084946,
        0.0015728133730590343
      ],
      "type": "VEC2"
    },
    {
      "bufferView": 0,
      "componentType": 5125,
      "count": 3180,
      "type": "SCALAR"
    },
    {
      "bufferView": 2,
      "byteOffset": 14808,
      "componentType": 5126,
      "count": 8729,
      "max": [
        0.5839435458183289,
        0.5083017349243164,
        0.030284026637673378
      ],
      "min": [
        -0.03001646138727665,
        -0.030761318281292915,
        -1.2256242036819458
      ],
      "type": "VEC3"
    },
    {
      "bufferView": 2,
      "byteOffset": 119556,
      "componentType": 5126,
      "count": 8729,
      "max": [
        0.9994403719902039,
        0.9999907612800598,
        0.9998207092285156
      ],
      "min": [
        -0.9994378685951233,
        -0.9997586011886597,
        -0.9999615550041199
      ],
      "type": "VEC3"
    },
    {
      "bufferView": 3,
      "byteOffset": 9872,
      "componentType": 5126,
      "count": 8729,
      "max": [
        0.9999038577079773,
        0.9998629689216614,
        0.999617874622345,
        -1.0
      ],
      "min": [
        -0.999622106552124,
        -0.9998867511749268,
        -0.9999346137046814,
        -1.0
      ],
      "type": "VEC4"
    },
    {
      "bufferView": 1,
      "byteOffset": 19744,
      "componentType": 5126,
      "count": 8729,
      "max": [
        0.9866366386413574,
        0.9898032546043396
      ],
      "min": [
        0.5412735342979431,
        0.9154213070869446
      ],
      "type": "VEC2"
    },
    {
      "bufferView": 1,
      "byteOffset": 89576,
      "componentType": 5126,
      "count": 8729,
      "max": [
        0.9866366386413574,
        0.9898032546043396
      ],
      "min": [
        0.5412735342979431,
        0.9154213070869446
      ],
      "type": "VEC2"
    },
    {
      "bufferView": 1,
      "byteOffset": 159408,
      "componentType": 5126,
      "count": 8729,
      "max": [
        0.9866366386413574,
        0.9898032546043396
      ],
      "min": [
        0.5412735342979431,
        0.9154213070869446
      ],
      "type": "VEC2"
    },
    {
      "bufferView": 1,
      "byteOffset": 229240,
      "componentType": 5126,
      "count": 8729,
      "max": [
        0.9866366386413574,
        0.9898032546043396
      ],
      "min": [
        0.5412735342979431,
        0.9154213070869446
      ],
      "type": "VEC2"
    },
    {
      "bufferView": 0,
      "byteOffset": 12720,
      "componentType": 5125,
      "count": 25866,
      "type": "SCALAR"
    }
  ],
  "asset": {
    "extras": {
      "author": "Incg5764 (https://sketchfab.com/incg5764)",
      "license": "CC-BY-4.0 (http://creativecommons.org/licenses/by/4.0/)",
      "source": "https://sketchfab.com/3d-models/just-a-simple-bomb-2bafad6b952942d6bdf43aea2016f503",
      "title": "Just a Simple Bomb"
    },
    "generator": "Sketchfab-13.88.0",
    "version": "2.0"
  },
  "bufferViews": [
    {
      "buffer": 0,
      "byteLength": 116184,
      "name": "floatBufferViews",
      "target": 34963
    },
    {
      "buffer": 0,
      "byteLength": 299072,
      "byteOffset": 116184,
      "byteStride": 8,
      "name": "floatBufferViews",
      "target": 34962
    },
    {
      "buffer": 0,
      "byteLength": 224304,
      "byteOffset": 415256,
      "byteStride": 12,
      "name": "floatBufferViews",
      "target": 34962
    },
    {
      "buffer": 0,
      "byteLength": 149536,
      "byteOffset": 639560,
      "byteStride": 16,
      "name": "floatBufferViews",
      "target": 34962
    }
  ],
  "buffers": [
    {
      "byteLength": 789096,
      "uri": "scene.bin"
    }
  ],
  "images": [
    {
      "uri": "textures/bomb_baseColor.jpeg"
    },
    {
      "uri": "textures/bomb_metallicRoughness.png"
    },
    {
      "uri": "textures/bomb_normal.png"
    }
  ],
  "materials": [
    {
      "doubleSided": true,
      "name": "bomb",
      "normalTexture": {
        "index": 2
      },
      "pbrMetallicRoughness": {
        "baseColorTexture": {
          "index": 0
        },
        "metallicRoughnessTexture": {
          "index": 1
        }
      }
    }
  ],
  "meshes": [
    {
      "name": "Object_0",
      "primitives": [
        {
          "attributes": {
            "NORMAL": 1,
            "POSITION": 0,
            "TANGENT": 2,
            "TEXCOORD_0": 3,
            "TEXCOORD_1": 4,
            "TEXCOORD_2": 5,
            "TEXCOORD_3": 6
          },
          "indices": 7,
          "material": 0,
          "mode": 4
        }
      ]
    },
    {
      "name": "Object_1",
      "primitives": [
        {
          "attributes": {
            "NORMAL": 9,
            "POSITION": 8,
            "TANGENT": 10,
            "TEXCOORD_0": 11,
            "TEXCOORD_1": 12,
            "TEXCOORD_2": 13,
            "TEXCOORD_3": 14
          },
          "indices": 15,
          "material": 0,
          "mode": 4
        }
      ]
    }
  ],
  "nodes": [
    {
      "children": [
        1
      ],
      "matrix": [
        1.0,
        0.0,
        0.0,
        0.0,
        0.0,
        2.220446049250313e-16,
        -1.0,
        0.0,
        0.0,
        1.0,
        2.220446049250313e-16,
        0.0,
        0.0,
        0.0,
        0.0,
        1.0
      ],
      "name": "Sketchfab_model"
    },
    {
      "children": [
        2
      ],
      "name": "root"
    },
    {
      "children": [
        3,
        5
      ],
      "matrix": [
        1.0,
        0.0,
        0.0,
        0.0,
        0.0,
        2.220446049250313e-16,
        1.0,
        0.0,
        0.0,
        -1.0,
        2.220446049250313e-16,
        0.0,
        0.0,
        0.0,
        0.0,
        1.0
      ],
      "name": "GLTF_SceneRootNode"
    },
    {
      "children": [
        4
      ],
      "name": "bomb_0"
    },
    {
      "mesh": 0,
      "name": "Object_4"
    },
    {
      "children": [
        6
      ],
      "matrix": [
        1.0,
        0.0,
        0.0,
        0.0,
        0.0,
        1.0,
        0.0,
        0.0,
        0.0,
        0.0,
        1.0,
        0.0,
        0.0,
        1.1608011722564697,
        0.0,
        1.0
      ],
      "name": "rope_1"
    },
    {
      "mesh": 1,
      "name": "Object_6"
    }
  ],
  "samplers": [
    {
      "magFilter": 9729,
      "minFilter": 9987,
      "wrapS": 10497,
      "wrapT": 10497
    }
  ],
  "scene": 0,
  "scenes": [
    {
      "name": "Sketchfab_Scene",
      "nodes": [
        0
      ]
    }
  ],
  "textures": [
    {
      "sampler": 0,
      "source": 0
    },
    {
      "sampler": 0,
      "source": 1
    },
    {
      "sampler": 0,
      "source": 2
    }
  ]
}
