{
  "accessors": [
    {
      "bufferView": 2,
      "componentType": 5126,
      "count": 25192,
      "max": [
        2.5259482860565186,
        0.10941179096698761,
        2.5259482860565186
      ],
      "min": [
        -2.5259482860565186,
        -0.10941178351640701,
        -2.5259482860565186
      ],
      "type": "VEC3"
    },
    {
      "bufferView": 2,
      "byteOffset": 302304,
      "componentType": 5126,
      "count": 25192,
      "max": [
        1.0,
        1.0,
        1.0
      ],
      "min": [
        -1.0,
        -1.0,
        -1.0
      ],
      "type": "VEC3"
    },
    {
      "bufferView": 3,
      "componentType": 5126,
      "count": 25192,
      "max": [
        1.0,
        1.0,
        0.7816349864006042,
        1.0
      ],
      "min": [
        -1.0,
        -1.0,
        -0.7915783524513245,
        1.0
      ],
      "type": "VEC4"
    },
    {
      "bufferView": 1,
      "componentType": 5126,
      "count": 25192,
      "max": [
        0.9881823658943176,
        0.9857520461082458
      ],
      "min": [
        0.011817574501037598,
        0.011817455291748047
      ],
      "type": "VEC2"
    },
    {
      "bufferView": 1,
      "byteOffset": 201536,
      "componentType": 5126,
      "count": 25192,
      "max": [
        0.9881823658943176,
        0.9857520461082458
      ],
      "min": [
        0.011817574501037598,
        0.011817455291748047
      ],
      "type": "VEC2"
    },
    {
      "bufferView": 1,
      "byteOffset": 403072,
      "componentType": 5126,
      "count": 25192,
      "max": [
        0.9881823658943176,
        0.9857520461082458
      ],
      "min": [
        0.011817574501037598,
        0.011817455291748047
      ],
      "type": "VEC2"
    },
    {
      "bufferView": 0,
      "componentType": 5125,
      "count": 121104,
      "type": "SCALAR"
    }
  ],
  "asset": {
    "extras": {
      "author": "AnshiNoWara2 (https://sketchfab.com/Anshinowara2)",
      "license": "CC-BY-4.0 (http://creativecommons.org/licenses/by/4.0/)",
      "source": "https://sketchfab.com/3d-models/stop-sign-b1f16ea7ef834a1cbabb2b8f2bbf1f77",
      "title": "Stop Sign"
    },
    "generator": "Sketchfab-15.37.0",
    "version": "2.0"
  },
  "bufferViews": [
    {
      "buffer": 0,
      "byteLength": 484416,
      "name": "floatBufferViews",
      "target": 34963
    },
    {
      "buffer": 0,
      "byteLength": 604608,
      "byteOffset": 484416,
      "byteStride": 8,
      "name": "floatBufferViews",
      "target": 34962
    },
    {
      "buffer": 0,
      "byteLength": 604608,
      "byteOffset": 1089024,
      "byteStride": 12,
      "name": "floatBufferViews",
      "target": 34962
    },
    {
      "buffer": 0,
      "byteLength": 403072,
      "byteOffset": 1693632,
      "byteStride": 16,
      "name": "floatBufferViews",
      "target": 34962
    }
  ],
  "buffers": [
    {
      "byteLength": 2096704,
      "uri": "scene.bin"
    }
  ],
  "images": [
    {
      "uri": "textures/Stop_Sign_baseColor.png"
    },
    {
      "uri": "textures/Stop_Sign_metallicRoughness.png"
    },
    {
      "uri": "textures/Stop_Sign_normal.png"
    }
  ],
  "materials": [
    {
      "doubleSided": true,
      "name": "Stop_Sign",
      "normalTexture": {
        "index": 2
      },
      "pbrMetallicRoughness": {
        "baseColorTexture": {
          "index": 0
        },
        "metallicRoughnessTexture": {
          "index": 1
        }
      }
    }
  ],
  "meshes": [
    {
      "name": "Stop Sign_Stop Sign_0",
      "primitives": [
        {
          "attributes": {
            "NORMAL": 1,
            "POSITION": 0,
            "TANGENT": 2,
            "TEXCOORD_0": 3,
            "TEXCOORD_1": 4,
            "TEXCOORD_2": 5
          },
          "indices": 6,
          "material": 0,
          "mode": 4
        }
      ]
    }
  ],
  "nodes": [
    {
      "children": [
        1
      ],
      "matrix": [
        1.0,
        0.0,
        0.0,
        0.0,
        0.0,
        2.220446049250313e-16,
        -1.0,
        0.0,
        0.0,
        1.0,
        2.220446049250313e-16,
        0.0,
        0.0,
        0.0,
        0.0,
        1.0
      ],
      "name": "Sketchfab_model"
    },
    {
      "children": [
        2
      ],
      "matrix": [
        0.009999999776482582,
        0.0,
        0.0,
        0.0,
        0.0,
        0.0,
        0.009999999776482582,
        0.0,
        0.0,
        -0.009999999776482582,
        0.0,
        0.0,
        0.0,
        0.0,
        0.0,
        1.0
      ],
      "name": "f9813da0cdf049b8b1bfc576df86ed76.fbx"
    },
    {
      "children": [
        3
      ],
      "name": "RootNode"
    },
    {
      "children": [
        4
      ],
      "matrix": [
        100.0,
        0.0,
        0.0,
        0.0,
        0.0,
        -1.629206793918314e-05,
        -99.99999999999868,
        0.0,
        0.0,
        99.99999999999868,
        -1.629206793918314e-05,
        0.0,
        0.0,
        0.0,
        0.0,
        1.0
      ],
      "name": "Stop Sign"
    },
    {
      "mesh": 0,
      "name": "Stop Sign_Stop Sign_0"
    }
  ],
  "samplers": [
    {
      "magFilter": 9729,
      "minFilter": 9987,
      "wrapS": 10497,
      "wrapT": 10497
    }
  ],
  "scene": 0,
  "scenes": [
    {
      "name": "Sketchfab_Scene",
      "nodes": [
        0
      ]
    }
  ],
  "textures": [
    {
      "sampler": 0,
      "source": 0
    },
    {
      "sampler": 0,
      "source": 1
    },
    {
      "sampler": 0,
      "source": 2
    }
  ]
}
